<?xml version="1.0" encoding="UTF-8" standalone="no"?>
<!-- Created with Inkscape (http://www.inkscape.org/) -->

<svg
   width="57.885414mm"
   height="36.71875mm"
   viewBox="0 0 57.885414 36.71875"
   version="1.1"
   id="svg5"
   inkscape:version="1.2.2 (732a01da63, 2022-12-09)"
   sodipodi:docname="sawy_wire.svg"
   xmlns:inkscape="http://www.inkscape.org/namespaces/inkscape"
   xmlns:sodipodi="http://sodipodi.sourceforge.net/DTD/sodipodi-0.dtd"
   xmlns="http://www.w3.org/2000/svg"
   xmlns:svg="http://www.w3.org/2000/svg">
  <sodipodi:namedview
     id="namedview7"
     pagecolor="#505050"
     bordercolor="#eeeeee"
     borderopacity="1"
     inkscape:showpageshadow="0"
     inkscape:pageopacity="0"
     inkscape:pagecheckerboard="0"
     inkscape:deskcolor="#505050"
     inkscape:document-units="mm"
     showgrid="true"
     inkscape:zoom="4"
     inkscape:cx="109.375"
     inkscape:cy="69.125"
     inkscape:window-width="1920"
     inkscape:window-height="976"
     inkscape:window-x="-8"
     inkscape:window-y="78"
     inkscape:window-maximized="1"
     inkscape:current-layer="layer1">
    <inkscape:grid
       type="xygrid"
       id="grid132"
       originx="-2.1458334"
       originy="-2.1458333" />
  </sodipodi:namedview>
  <defs
     id="defs2">
    <inkscape:path-effect
       effect="fillet_chamfer"
       id="path-effect1012"
       is_visible="true"
       lpeversion="1"
       nodesatellites_param="F,0,0,1,0,1.3229167,0,1 @ F,0,0,1,0,1.3229167,0,1 @ F,0,0,1,0,1.3229167,0,1 @ F,0,0,1,0,1.3229167,0,1 @ F,0,0,1,0,1.3229167,0,1 @ F,0,0,1,0,1.3229167,0,1 @ F,0,0,1,0,1.3229167,0,1 @ F,0,0,1,0,1.3229167,0,1 @ F,0,0,1,0,1.3229167,0,1 @ F,0,0,1,0,1.3229167,0,1 @ F,0,0,1,0,1.3229167,0,1 @ F,0,0,1,0,1.3229167,0,1"
       unit="px"
       method="auto"
       mode="F"
       radius="5"
       chamfer_steps="1"
       flexible="false"
       use_knot_distance="true"
       apply_no_radius="true"
       apply_with_radius="true"
       only_selected="false"
       hide_knots="false" />
    <inkscape:path-effect
       effect="fillet_chamfer"
       id="path-effect289"
       is_visible="true"
       lpeversion="1"
       nodesatellites_param="F,0,0,1,0,3.96875,0,1 @ F,0,0,1,0,3.96875,0,1 @ F,0,0,1,0,3.96875,0,1 @ F,0,0,1,0,3.96875,0,1"
       unit="px"
       method="auto"
       mode="F"
       radius="15"
       chamfer_steps="1"
       flexible="false"
       use_knot_distance="true"
       apply_no_radius="true"
       apply_with_radius="true"
       only_selected="false"
       hide_knots="false" />
  </defs>
  <g
     inkscape:label="Layer 1"
     inkscape:groupmode="layer"
     id="layer1"
     transform="translate(-2.1458333,-2.1458333)">
    <path
       style="fill:none;stroke:#999999;stroke-width:1;stroke-linecap:butt;stroke-linejoin:miter;stroke-dasharray:none;stroke-opacity:1"
       d="M 2.6458333,6.6145833 V 34.395833 a 3.96875,3.96875 45 0 0 3.96875,3.96875 H 55.562499 a 3.96875,3.96875 135 0 0 3.96875,-3.96875 V 6.6145833 a 3.96875,3.96875 45 0 0 -3.96875,-3.96875 H 6.6145833 a 3.96875,3.96875 135 0 0 -3.96875,3.96875 z"
       id="path240"
       inkscape:path-effect="#path-effect289"
       inkscape:original-d="M 2.6458333,2.6458333 V 38.364583 H 59.531249 V 2.6458333 Z" />
    <path
       style="fill:none;stroke:#999999;stroke-width:1;stroke-linecap:butt;stroke-linejoin:miter;stroke-dasharray:none;stroke-opacity:1"
       d="M 2.6458333,30.427083 H 59.531249"
       id="path894" />
    <path
       style="fill:none;stroke:#999999;stroke-width:1;stroke-linecap:butt;stroke-linejoin:miter;stroke-dasharray:none;stroke-opacity:1"
       d="M 13.229167,7.9374999 V 11.90625 A 1.3229167,1.3229167 135 0 1 11.90625,13.229167 H 7.9374999 a 1.3229167,1.3229167 135 0 0 -1.3229167,1.322917 v 3.968749 A 1.3229167,1.3229167 45 0 0 7.9374999,19.84375 H 11.90625 a 1.3229167,1.3229167 45 0 1 1.322917,1.322917 l 0,3.968749 a 1.3229167,1.3229167 45 0 0 1.322917,1.322917 l 3.968749,0 a 1.3229167,1.3229167 135 0 0 1.322917,-1.322917 v -3.968749 a 1.3229167,1.3229167 135 0 1 1.322917,-1.322917 h 3.968749 a 1.3229167,1.3229167 135 0 0 1.322917,-1.322917 l 0,-3.968749 a 1.3229167,1.3229167 45 0 0 -1.322917,-1.322917 l -3.968749,0 A 1.3229167,1.3229167 45 0 1 19.84375,11.90625 V 7.9374999 A 1.3229167,1.3229167 45 0 0 18.520833,6.6145832 h -3.968749 a 1.3229167,1.3229167 135 0 0 -1.322917,1.3229167 z"
       id="path1010"
       inkscape:path-effect="#path-effect1012"
       inkscape:original-d="M 13.229167,6.6145832 V 13.229167 H 6.6145832 v 6.614583 h 6.6145838 v 6.614583 H 19.84375 V 19.84375 h 6.614583 V 13.229167 H 19.84375 V 6.6145832 Z" />
    <circle
       style="fill:none;fill-opacity:0;stroke:#999999;stroke-width:1;stroke-linecap:round;stroke-linejoin:round;stroke-dasharray:none;stroke-opacity:1"
       id="path1066"
       cx="36.380207"
       cy="16.536459"
       r="4.6302085" />
    <circle
       style="fill:none;fill-opacity:0;stroke:#999999;stroke-width:1;stroke-linecap:round;stroke-linejoin:round;stroke-dasharray:none;stroke-opacity:1"
       id="path1066-7"
       cx="48.947918"
       cy="16.536459"
       r="4.6302085" />
  </g>
</svg>
